<?xml version="1.0" encoding="UTF-8" standalone="no"?>
<svg
   viewBox="0 0 16 16"
   width="32"
   height="32"
   version="1.1"
   id="svg1755"
   sodipodi:docname="expressjs-icon.svg"
   inkscape:version="1.1 (c68e22c387, 2021-05-23)"
   xmlns:inkscape="http://www.inkscape.org/namespaces/inkscape"
   xmlns:sodipodi="http://sodipodi.sourceforge.net/DTD/sodipodi-0.dtd"
   xmlns="http://www.w3.org/2000/svg"
   xmlns:svg="http://www.w3.org/2000/svg">
  <defs
     id="defs1759" />
  <sodipodi:namedview
     id="namedview1757"
     pagecolor="#ffffff"
     bordercolor="#999999"
     borderopacity="1"
     inkscape:pageshadow="0"
     inkscape:pageopacity="0"
     inkscape:pagecheckerboard="0"
     showgrid="false"
     inkscape:zoom="11.21875"
     inkscape:cx="31.064067"
     inkscape:cy="24.913649"
     inkscape:window-width="1920"
     inkscape:window-height="991"
     inkscape:window-x="-9"
     inkscape:window-y="-9"
     inkscape:window-maximized="1"
     inkscape:current-layer="svg1755" />
  <path
     d="m 16.010672,12.406435 c -0.582777,0.14819 -0.943256,0.0065 -1.266688,-0.47914 L 12.44392,8.7450556 12.111477,8.3044686 9.4253993,11.93781 c -0.306909,0.437082 -0.628838,0.627336 -1.201601,0.47263 L 11.66338,7.7932876 8.4611143,3.6227316 c 0.550734,-0.107143 0.931241,-0.05257 1.2691909,0.440587 l 2.3856778,3.221793 2.403202,-3.20427 c 0.30791,-0.437082 0.638851,-0.603304 1.191588,-0.442088 l -1.241655,1.646193 -1.682241,2.190417 c -0.200267,0.250334 -0.17273,0.421562 0.01151,0.663384 z M -0.00666705,7.7161856 0.27470785,6.3323426 C 1.0407284,3.5936926 4.1799106,2.4556766 6.344795,4.1479306 c 1.2651852,0.995327 1.5796043,2.403202 1.5170213,3.980303 H 0.73031485 C 0.62317205,10.967017 2.6663944,12.6803 5.2713649,11.806135 6.1850822,11.499226 6.7232993,10.783772 6.9926582,9.8885806 7.1293412,9.4399826 7.3556412,9.3698886 7.7772032,9.4980596 7.5619162,10.617551 7.0762692,11.552797 6.0499021,12.138076 4.516359,13.014244 2.3274427,12.730866 1.1759085,11.513245 0.48999465,10.806804 0.20661715,9.9116105 0.07944775,8.9543346 c -0.020027,-0.158211 -0.06008,-0.308911 -0.09012,-0.460614 q 0.00401,-0.388517 0.00401,-0.777034 z m 0.7499993,-0.190253 H 7.1879183 C 7.1458623,5.4731976 5.8676593,4.0152546 4.1208319,4.0027376 2.2032772,3.9877186 0.82644295,5.4111146 0.74333225,7.5259326 Z"
     id="path1753"
     style="stroke-width:0.999997" />
</svg>
